<?xml version="1.0" standalone="no"?><!DOCTYPE svg PUBLIC "-//W3C//DTD SVG 1.1//EN" "http://www.w3.org/Graphics/SVG/1.1/DTD/svg11.dtd"><svg t="1590584904387" class="icon" viewBox="0 0 1024 1024" version="1.1" xmlns="http://www.w3.org/2000/svg" p-id="1806" xmlns:xlink="http://www.w3.org/1999/xlink" width="200" height="200"><defs><style type="text/css"></style></defs><path d="M730.97728 987.58656 284.22144 987.58656c-65.79712 0-119.13728-53.36064-119.13728-119.15264L165.08416 153.40544c0-65.82272 53.34016-119.17312 119.13728-119.17312l446.75584 0c65.80736 0 119.14752 53.3504 119.14752 119.17312l0 715.02336C850.11968 934.22592 796.77952 987.58656 730.97728 987.58656zM790.54336 153.40544c0-32.90624-26.69056-59.58656-59.5712-59.58656L284.22144 93.81888c-32.896 0-59.56608 26.68032-59.56608 59.58656l0 29.78304 565.888 0L790.54336 153.40544zM790.54336 242.78016 224.65536 242.78016l0 476.69248 565.888 0L790.54336 242.78016zM790.54336 779.0336 224.65536 779.0336l0 89.3952c0 32.896 26.67008 59.5712 59.56608 59.5712l446.75584 0c32.88064 0 59.5712-26.6752 59.5712-59.5712L790.54848 779.0336zM507.60192 898.21184c-24.6784 0-44.68224-19.99872-44.68224-44.69248 0-24.69888 20.00384-44.68224 44.68224-44.68224 24.66816 0 44.67712 19.97824 44.67712 44.68224C552.27904 878.208 532.27008 898.21184 507.60192 898.21184z" p-id="1807" fill="#9E9E9E"></path></svg>