<?xml version="1.0" standalone="no"?><!DOCTYPE svg PUBLIC "-//W3C//DTD SVG 1.1//EN" "http://www.w3.org/Graphics/SVG/1.1/DTD/svg11.dtd"><svg t="1590375936878" class="icon" viewBox="0 0 1024 1024" version="1.1" xmlns="http://www.w3.org/2000/svg" p-id="2893" xmlns:xlink="http://www.w3.org/1999/xlink" width="200" height="200"><defs><style type="text/css"></style></defs><path d="M480.765857 64.383234 160.432636 64.383234C107.375197 64.383234 64.383234 107.276893 64.383234 160.188903L64.383234 863.811097C64.383234 916.437792 107.276893 959.616766 160.188903 959.616766L863.811097 959.616766C916.437792 959.616766 959.616766 916.607363 959.616766 863.552576L959.616766 575.762693 895.671514 575.762693 895.671514 863.552576C895.671514 881.201929 881.211182 895.671514 863.811097 895.671514L160.188903 895.671514C142.720667 895.671514 128.328486 881.249727 128.328486 863.811097L128.328486 160.188903C128.328486 142.624458 142.659713 128.328486 160.432636 128.328486L480.765857 128.328486 480.765857 64.383234Z" p-id="2894" fill="#666666"></path><path d="M870.248887 226.845071C860.86345 228.181504 849.738401 230.742093 836.87099 234.938014 795.623303 248.388433 747.679442 275.575229 693.33357 320.07865 680.774858 330.362883 668.990335 340.960099 657.954174 351.843196 612.140719 397.021252 580.85985 445.144921 561.354074 493.034516 554.62075 509.565834 549.837795 524.800121 546.676292 538.313824 544.871966 546.026337 544.02466 551.173869 543.801342 553.322628L480.198658 546.712491C481.931309 530.040935 488.268901 502.951187 502.132791 468.913263 524.809989 413.237353 560.847737 357.795519 613.054895 306.312437 625.489792 294.050004 638.737602 282.136929 652.819965 270.604989 721.155673 214.645397 780.222893 183.208986 828.940673 169.673793L686.267158 127.155763 700.561744 67.1787 942.404818 139.250179 953.609335 142.589229 892.397502 399.447978 833.308548 381.838922 870.248887 226.845071Z" p-id="2895" fill="#666666"></path></svg>