<?xml version="1.0" standalone="no"?><!DOCTYPE svg PUBLIC "-//W3C//DTD SVG 1.1//EN" "http://www.w3.org/Graphics/SVG/1.1/DTD/svg11.dtd"><svg t="1590155192543" class="icon" viewBox="0 0 1191 1024" version="1.1" xmlns="http://www.w3.org/2000/svg" p-id="12759" xmlns:xlink="http://www.w3.org/1999/xlink" width="232.6171875" height="200"><defs><style type="text/css"></style></defs><path d="M1187.38225 274.306948l-49.768144 271.581962a49.223147 49.223147 0 0 1-30.718019 29.727115 35.400039 35.400039 0 0 1-3.542481 1.263402 48.802013 48.802013 0 0 1-13.600154 1.33772 43.872266 43.872266 0 0 1-5.697697-0.272498 49.867234 49.867234 0 0 1-9.909039-2.47726c-0.76795-0.297271-1.436811-0.743178-2.179988-1.065221-1.486356-0.594542-3.047029-0.56977-4.508612-1.312948l-117.645055-30.470292 43.822721 426.782272a49.396555 49.396555 0 0 1-30.148249 49.545191 40.602284 40.602284 0 0 1-3.864525 1.560673 26.828721 26.828721 0 0 1-2.477259 0.743178 49.247919 49.247919 0 0 1-14.615831 2.477259l-519.407006-0.470679a49.545191 49.545191 0 0 1 0-99.090381l466.368879 0.421134-43.005226-432.380879a49.817689 49.817689 0 0 1 31.485969-60.915812l0.66886-0.272498a49.545191 49.545191 0 0 1 12.014709-2.700213 47.067931 47.067931 0 0 1 28.06735 6.317012l133.62338 35.69731 37.530481-198.527579a792.946003 792.946003 0 0 0-258.77453-160.377782 246.93323 246.93323 0 0 1-468.870912-1.040449 795.621444 795.621444 0 0 0-261.400426 161.418231l37.6048 198.92394 135.109735-36.093671a47.067931 47.067931 0 0 1 28.067351-6.317012 49.545191 49.545191 0 0 1 12.014708 2.700213l0.644088 0.272498a49.842462 49.842462 0 0 1 7.060189 3.071802 49.074511 49.074511 0 0 1 24.52487 57.571512l-46.820205 485.765821a49.545191 49.545191 0 1 1-98.743565-8.298819l42.485001-426.85659-117.868009 30.54461a50.313141 50.313141 0 0 1-22.889878 5.078382 49.34701 49.34701 0 0 1-48.876331-32.204374L3.351284 274.381266a48.281788 48.281788 0 0 1 22.642152-60.346042A990.383588 990.383588 0 0 1 348.854671 14.640604l28.983936-9.909038-0.247726 0.544997a50.139733 50.139733 0 0 1 5.301336-2.080898l4.558157-0.792723a49.371782 49.371782 0 0 1 59.454229 30.197793h1.981808v0.644088c0 4.161796 0.891813 8.051093 1.238629 12.138572 0 0.644087 0.148636 1.288175 0.173409 1.932262a147.57035 147.57035 0 0 0 294.496613-14.169924v-0.644088h3.666344A49.322237 49.322237 0 0 1 780.913506 3.096574l4.558157-0.792723a49.173602 49.173602 0 0 1 40.007742 6.143604l17.613315 6.168376a1.461583 1.461583 0 0 1 0 0.322044 990.705632 990.705632 0 0 1 321.721695 199.023031 48.281788 48.281788 0 0 1 22.567835 60.346042z" p-id="12760"></path></svg>